<svg width="28" height="28" viewBox="0 0 28 28" fill="none" xmlns="http://www.w3.org/2000/svg">
<g opacity="0.9" clip-path="url(#clip0_1_83)">
<path d="M14 0C6.26768 0 0 6.26768 0 14C0 21.7323 6.26768 28 14 28C21.7323 28 28 21.7323 28 14C28 6.26768 21.7323 0 14 0ZM14 25.8125C7.47595 25.8125 2.1875 20.5241 2.1875 14C2.1875 7.47595 7.47595 2.1875 14 2.1875C20.5241 2.1875 25.8125 7.47595 25.8125 14C25.8125 20.5241 20.5241 25.8125 14 25.8125Z" fill="#0F1A2E"/>
<path fill-rule="evenodd" clip-rule="evenodd" d="M17.3223 11.8569H14.887V10.0796C14.887 9.53438 15.4509 9.40795 15.7141 9.40795C15.9756 9.40795 17.2873 9.40795 17.2873 9.40795V7.00941L15.4843 7C13.0242 7 12.4628 8.78845 12.4628 9.93519V11.857H10.6777V14.3281H12.4628C12.4628 17.5009 12.4628 21 12.4628 21H14.887C14.887 21 14.887 17.4649 14.887 14.3281H16.9463L17.3223 11.8569Z" fill="#0F1A2E"/>
</g>
<defs>
<clipPath id="clip0_1_83">
<rect width="28" height="28" fill="white"/>
</clipPath>
</defs>
</svg>
