<svg width="18" height="18" viewBox="0 0 18 18" fill="none" xmlns="http://www.w3.org/2000/svg">
<path fill-rule="evenodd" clip-rule="evenodd" d="M12.3522 18.0001V11.0296H14.692L15.0423 8.31299H12.3522V6.57857C12.3522 5.79205 12.5706 5.25608 13.6985 5.25608L15.1371 5.25541V2.82572C14.8882 2.79267 14.0343 2.71868 13.0409 2.71868C10.9668 2.71868 9.54695 3.98465 9.54695 6.30961V8.31299H7.20122V11.0296H9.54695V18.0001H0.993432C0.44465 18.0001 0 17.5553 0 17.0067V0.993499C0 0.444717 0.44465 0 0.993432 0H17.0066C17.5551 0 18 0.444717 18 0.993499V17.0067C18 17.5553 17.5551 18.0001 17.0066 18.0001H12.3522Z" fill="#0F1A2E"/>
</svg>
