<svg width="164" height="20" viewBox="0 0 164 20" fill="none" xmlns="http://www.w3.org/2000/svg">
<g clip-path="url(#clip0_1_197)">
<path d="M19.9665 7.58656C19.8921 7.36438 19.6996 7.2025 19.4681 7.16687L13.3199 6.2275L10.5653 0.359375C10.4621 0.14 10.2415 0 9.99932 0C9.75714 0 9.53682 0.14 9.43339 0.359375L6.6787 6.2275L0.530573 7.16719C0.299011 7.2025 0.106823 7.36469 0.0321359 7.58687C-0.0422391 7.80875 0.0136984 8.05375 0.177448 8.22156L4.64432 12.8019L3.5887 19.2719C3.54995 19.5081 3.64964 19.7459 3.84557 19.8834C3.95307 19.9594 4.07901 19.9978 4.20526 19.9978C4.30901 19.9978 4.41339 19.9716 4.50776 19.9197L9.99901 16.8825L15.4903 19.9197C15.5846 19.9716 15.689 19.9978 15.7928 19.9978C15.919 19.9978 16.0453 19.9594 16.1524 19.8834C16.3484 19.7459 16.4481 19.5081 16.4093 19.2719L15.3537 12.8019L19.8206 8.22156C19.9846 8.05344 20.0409 7.80844 19.9665 7.58656Z" fill="#0F1A2E"/>
</g>
<g clip-path="url(#clip1_1_197)">
<path d="M55.9665 7.58656C55.8921 7.36438 55.6996 7.2025 55.4681 7.16687L49.3199 6.2275L46.5653 0.359375C46.4621 0.14 46.2415 0 45.9993 0C45.7571 0 45.5368 0.14 45.4334 0.359375L42.6787 6.2275L36.5306 7.16719C36.299 7.2025 36.1068 7.36469 36.0321 7.58687C35.9578 7.80875 36.0137 8.05375 36.1774 8.22156L40.6443 12.8019L39.5887 19.2719C39.5499 19.5081 39.6496 19.7459 39.8456 19.8834C39.9531 19.9594 40.079 19.9978 40.2053 19.9978C40.309 19.9978 40.4134 19.9716 40.5078 19.9197L45.999 16.8825L51.4903 19.9197C51.5846 19.9716 51.689 19.9978 51.7928 19.9978C51.919 19.9978 52.0453 19.9594 52.1524 19.8834C52.3484 19.7459 52.4481 19.5081 52.4093 19.2719L51.3537 12.8019L55.8206 8.22156C55.9846 8.05344 56.0409 7.80844 55.9665 7.58656Z" fill="#0F1A2E"/>
</g>
<g clip-path="url(#clip2_1_197)">
<path d="M91.9665 7.58656C91.8921 7.36438 91.6996 7.2025 91.4681 7.16687L85.3199 6.2275L82.5653 0.359375C82.4621 0.14 82.2415 0 81.9993 0C81.7571 0 81.5368 0.14 81.4334 0.359375L78.6787 6.2275L72.5306 7.16719C72.299 7.2025 72.1068 7.36469 72.0321 7.58687C71.9578 7.80875 72.0137 8.05375 72.1774 8.22156L76.6443 12.8019L75.5887 19.2719C75.5499 19.5081 75.6496 19.7459 75.8456 19.8834C75.9531 19.9594 76.079 19.9978 76.2053 19.9978C76.309 19.9978 76.4134 19.9716 76.5078 19.9197L81.999 16.8825L87.4903 19.9197C87.5846 19.9716 87.689 19.9978 87.7928 19.9978C87.919 19.9978 88.0453 19.9594 88.1524 19.8834C88.3484 19.7459 88.4481 19.5081 88.4093 19.2719L87.3537 12.8019L91.8206 8.22156C91.9846 8.05344 92.0409 7.80844 91.9665 7.58656Z" fill="#0F1A2E"/>
</g>
<g clip-path="url(#clip3_1_197)">
<path d="M127.967 7.58656C127.892 7.36438 127.7 7.2025 127.468 7.16687L121.32 6.2275L118.565 0.359375C118.462 0.14 118.242 0 117.999 0C117.757 0 117.537 0.14 117.433 0.359375L114.679 6.2275L108.531 7.16719C108.299 7.2025 108.107 7.36469 108.032 7.58687C107.958 7.80875 108.014 8.05375 108.177 8.22156L112.644 12.8019L111.589 19.2719C111.55 19.5081 111.65 19.7459 111.846 19.8834C111.953 19.9594 112.079 19.9978 112.205 19.9978C112.309 19.9978 112.413 19.9716 112.508 19.9197L117.999 16.8825L123.49 19.9197C123.585 19.9716 123.689 19.9978 123.793 19.9978C123.919 19.9978 124.045 19.9594 124.152 19.8834C124.348 19.7459 124.448 19.5081 124.409 19.2719L123.354 12.8019L127.821 8.22156C127.985 8.05344 128.041 7.80844 127.967 7.58656Z" fill="#0F1A2E"/>
</g>
<g clip-path="url(#clip4_1_197)">
<path d="M163.967 7.58656C163.892 7.36438 163.7 7.2025 163.468 7.16687L157.32 6.2275L154.565 0.359375C154.462 0.14 154.242 0 153.999 0C153.757 0 153.537 0.14 153.433 0.359375L150.679 6.2275L144.531 7.16719C144.299 7.2025 144.107 7.36469 144.032 7.58687C143.958 7.80875 144.014 8.05375 144.177 8.22156L148.644 12.8019L147.589 19.2719C147.55 19.5081 147.65 19.7459 147.846 19.8834C147.953 19.9594 148.079 19.9978 148.205 19.9978C148.309 19.9978 148.413 19.9716 148.508 19.9197L153.999 16.8825L159.49 19.9197C159.585 19.9716 159.689 19.9978 159.793 19.9978C159.919 19.9978 160.045 19.9594 160.152 19.8834C160.348 19.7459 160.448 19.5081 160.409 19.2719L159.354 12.8019L163.821 8.22156C163.985 8.05344 164.041 7.80844 163.967 7.58656Z" fill="#0F1A2E"/>
</g>
<defs>
<clipPath id="clip0_1_197">
<rect width="20" height="20" fill="white"/>
</clipPath>
<clipPath id="clip1_1_197">
<rect width="20" height="20" fill="white" transform="translate(36)"/>
</clipPath>
<clipPath id="clip2_1_197">
<rect width="20" height="20" fill="white" transform="translate(72)"/>
</clipPath>
<clipPath id="clip3_1_197">
<rect width="20" height="20" fill="white" transform="translate(108)"/>
</clipPath>
<clipPath id="clip4_1_197">
<rect width="20" height="20" fill="white" transform="translate(144)"/>
</clipPath>
</defs>
</svg>
