<svg width="28" height="28" viewBox="0 0 28 28" fill="none" xmlns="http://www.w3.org/2000/svg">
<g opacity="0.9" clip-path="url(#clip0_1_68)">
<path d="M14 0C6.26768 0 0 6.26768 0 14C0 21.7324 6.26768 28 14 28C21.7324 28 28 21.7324 28 14C28 6.26768 21.7324 0 14 0ZM14 25.8125C7.47595 25.8125 2.1875 20.5241 2.1875 14C2.1875 7.47595 7.47595 2.1875 14 2.1875C20.5241 2.1875 25.8125 7.47595 25.8125 14C25.8125 20.5241 20.5241 25.8125 14 25.8125Z" fill="#0F1A2E"/>
<path d="M21 9.3473C20.7641 9.48741 20.0567 9.7668 19.3969 9.83691C19.82 9.59131 20.4463 8.78675 20.6009 8.14762C20.1943 8.42702 19.2602 8.8346 18.799 8.8346C18.799 8.8346 18.799 8.83586 18.7999 8.83673C18.2733 8.24414 17.5332 7.875 16.7112 7.875C15.1169 7.875 13.8232 9.2674 13.8232 10.9854C13.8232 11.2238 13.8495 11.4554 13.8974 11.6784H13.8965C11.7329 11.6185 9.20368 10.4508 7.77836 8.45179C6.90336 10.0843 7.66045 11.8996 8.65418 12.5611C8.31495 12.5893 7.6878 12.5192 7.39303 12.2107C7.37252 13.2933 7.857 14.7289 9.62073 15.2493C9.28052 15.4467 8.68065 15.3903 8.41848 15.3467C8.51074 16.2627 9.70019 17.4589 10.9998 17.4589C10.5366 18.035 8.956 19.0834 6.99994 18.7493C8.32879 19.6209 9.87792 20.125 11.5176 20.125C16.1773 20.125 19.796 16.0585 19.6012 11.0418C19.6012 11.0358 19.5995 11.0298 19.5995 11.0247C19.5995 11.011 19.6012 10.9973 19.6012 10.9854C19.6012 10.97 19.5995 10.9546 19.5995 10.9384C20.0233 10.6273 20.5924 10.0753 21 9.3473Z" fill="#0F1A2E"/>
</g>
<defs>
<clipPath id="clip0_1_68">
<rect width="28" height="28" fill="white"/>
</clipPath>
</defs>
</svg>
