<svg width="28" height="28" viewBox="0 0 28 28" fill="none" xmlns="http://www.w3.org/2000/svg">
<g opacity="0.9" clip-path="url(#clip0_1_77)">
<path d="M14 0C6.26768 0 0 6.26768 0 14C0 21.7323 6.26768 28 14 28C21.7323 28 28 21.7323 28 14C28 6.26768 21.7323 0 14 0ZM14 25.8125C7.47595 25.8125 2.1875 20.5241 2.1875 14C2.1875 7.47595 7.47595 2.1875 14 2.1875C20.5241 2.1875 25.8125 7.47595 25.8125 14C25.8125 20.5241 20.5241 25.8125 14 25.8125Z" fill="#0F1A2E"/>
<path fill-rule="evenodd" clip-rule="evenodd" d="M7.00514 20.9941H9.63014V10.4941H7.00514V20.9941ZM17.5051 10.4941C15.2578 10.5318 14.1521 12.1698 14.0051 12.2441V10.4941H11.3801V20.9941H14.0051V14.8691C14.0051 14.6444 14.5589 12.8457 16.6301 13.1191C17.7427 13.1918 18.3425 14.6632 18.3801 14.8691V20.9941L20.9949 21.0061V13.7369C20.9026 12.6876 20.3779 10.5317 17.5051 10.4941ZM8.31764 6.99414C7.59303 6.99414 7.00514 7.58116 7.00514 8.30664C7.00514 9.03213 7.59303 9.61914 8.31764 9.61914C9.04225 9.61914 9.63014 9.03213 9.63014 8.30664C9.63014 7.58116 9.04225 6.99414 8.31764 6.99414Z" fill="#0F1A2E"/>
</g>
<defs>
<clipPath id="clip0_1_77">
<rect width="28" height="28" fill="white"/>
</clipPath>
</defs>
</svg>
