<svg width="28" height="28" viewBox="0 0 28 28" fill="none" xmlns="http://www.w3.org/2000/svg">
<g opacity="0.9" clip-path="url(#clip0_1_72)">
<path d="M14 0C6.26768 0 0 6.26768 0 14C0 21.7323 6.26768 28 14 28C21.7323 28 28 21.7323 28 14C28 6.26768 21.7323 0 14 0ZM14 25.8125C7.47595 25.8125 2.1875 20.5241 2.1875 14C2.1875 7.47595 7.47595 2.1875 14 2.1875C20.5241 2.1875 25.8125 7.47595 25.8125 14C25.8125 20.5241 20.5241 25.8125 14 25.8125Z" fill="#0F1A2E"/>
<path d="M20.0558 14.0162C20.0558 10.5701 17.2616 7.77591 13.8146 7.77591C13.4924 7.77591 13.1779 7.80752 12.8695 7.85455C12.2466 7.32298 11.4408 7 10.559 7C8.59447 7 7 8.59365 7 10.559C7 11.3613 7.2683 12.0996 7.7169 12.6943C7.62546 13.1207 7.57422 13.5625 7.57422 14.0162C7.57422 17.4641 10.3675 20.2583 13.8146 20.2583C14.2572 20.2583 14.6896 20.2105 15.1057 20.1225C15.7312 20.6676 16.5464 21 17.441 21C19.4064 21 21 19.4064 21 17.441C21 16.4695 20.6104 15.5902 19.978 14.9485C20.0242 14.6426 20.0558 14.3333 20.0558 14.0162ZM16.7267 16.7344C16.4814 17.0839 16.1208 17.3573 15.6475 17.5547C15.1741 17.7538 14.6127 17.8521 13.9641 17.8521C13.1848 17.8521 12.5422 17.7171 12.0364 17.4462C11.6784 17.2522 11.387 16.9924 11.1623 16.6669C10.9384 16.343 10.8256 16.0269 10.8256 15.7201C10.8256 15.5415 10.8931 15.3894 11.0273 15.263C11.1623 15.1357 11.334 15.0725 11.5417 15.0725C11.71 15.0725 11.8536 15.1212 11.9698 15.2212C12.086 15.3194 12.186 15.4664 12.268 15.6604C12.3688 15.8919 12.4773 16.0842 12.5935 16.2389C12.7098 16.3944 12.8747 16.5226 13.0857 16.6225C13.2976 16.7234 13.5762 16.7738 13.9197 16.7738C14.394 16.7738 14.7785 16.673 15.0741 16.4696C15.3698 16.2671 15.5185 16.0142 15.5185 15.71C15.5185 15.4698 15.439 15.2742 15.2792 15.1246C15.1194 14.9743 14.9134 14.8597 14.6597 14.7803C14.4068 14.7016 14.0701 14.6171 13.6454 14.5282C13.0789 14.4061 12.6046 14.2633 12.2227 14.101C11.8407 13.9369 11.5365 13.7148 11.3135 13.4328C11.0888 13.1499 10.9768 12.7996 10.9768 12.3817C10.9768 11.9819 11.0947 11.6281 11.3323 11.3179C11.5681 11.0086 11.9108 10.7693 12.3603 10.6036C12.8089 10.4369 13.3352 10.3541 13.9419 10.3541C14.4256 10.3541 14.8451 10.4088 15.198 10.519C15.5518 10.6293 15.8449 10.7762 16.0782 10.9591C16.3106 11.1428 16.4815 11.3351 16.5892 11.5359C16.6969 11.7367 16.7507 11.9332 16.7507 12.1238C16.7507 12.2989 16.6832 12.457 16.5499 12.5972C16.4148 12.7364 16.2465 12.8074 16.0457 12.8074C15.8628 12.8074 15.7235 12.7647 15.6287 12.6809C15.5339 12.5972 15.4305 12.4596 15.3194 12.2682C15.1758 11.9948 15.0041 11.7803 14.8024 11.6273C14.6016 11.4744 14.2786 11.3975 13.8334 11.3975C13.4216 11.3975 13.0892 11.4804 12.8363 11.647C12.5824 11.8127 12.4568 12.0135 12.4568 12.2476C12.4568 12.3929 12.4995 12.5185 12.5858 12.6236C12.6713 12.7296 12.79 12.8193 12.9413 12.8954C13.0908 12.9714 13.2438 13.0304 13.3984 13.0748C13.5522 13.1167 13.8069 13.1799 14.1624 13.2619C14.6067 13.3576 15.0091 13.4636 15.3698 13.579C15.7304 13.6943 16.0371 13.8345 16.29 13.9985C16.5438 14.1643 16.7412 14.3728 16.8822 14.6249C17.0241 14.8769 17.095 15.1863 17.095 15.5529C17.095 15.9901 16.9719 16.3849 16.7267 16.7344Z" fill="#0F1A2E"/>
</g>
<defs>
<clipPath id="clip0_1_72">
<rect width="28" height="28" fill="white"/>
</clipPath>
</defs>
</svg>
